<svg version="1.1" xmlns="http://www.w3.org/2000/svg" viewBox="0 0 1912.1264716257838 1429.1571428571428" width="1912.1264716257838" height="1429.1571428571428">
  <!-- svg-source:excalidraw -->
  
  <defs>
    <style>
      @font-face {
        font-family: "Virgil";
        src: url("https://excalidraw.com/Virgil.woff2");
      }
      @font-face {
        font-family: "Cascadia";
        src: url("https://excalidraw.com/Cascadia.woff2");
      }
    </style>
  </defs>
  <rect x="0" y="0" width="1912.1264716257838" height="1429.1571428571428" fill="#ffffff"></rect><g stroke-linecap="round" transform="translate(304.35714285714494 433.3999999999992) rotate(0 348 344.49999999999994)"><path d="M0.34 0.29 C158.1 -0.82, 315.8 0.17, 696.43 0.2 M0.1 0.21 C185.28 1.4, 370.83 1.79, 696.34 0.33 M696.38 -0.17 C694.14 181.47, 693.96 363.73, 696.04 688.71 M696.19 -0.09 C694.4 138.11, 694.48 275.98, 696.05 688.78 M695.97 688.4 C481.05 687.73, 267.03 688.26, -0.22 688.5 M696.17 688.99 C550.56 689.39, 405.73 689.12, -0.02 688.64 M-0.39 688.49 C-2.08 454.55, -1.72 219.79, -0.46 -0.04 M0.37 688.79 C0.62 525.99, 0.14 362.37, 0.1 -0.02" stroke="#000000" stroke-width="1" fill="none"></path></g><g stroke-linecap="round" transform="translate(322.35714285714494 546.3999999999992) rotate(0 328.5 231.49999999999994)"><path d="M-0.17 -0.66 C167.29 -1.77, 334.11 -1.16, 656.55 0.06 M-0.3 -0.3 C234.89 -0.03, 470.16 0, 656.75 -0.37 M656.97 -0.89 C657.2 133.54, 656.56 267.83, 656.18 463.37 M656.71 -0.36 C656.35 163.28, 656.22 326.6, 656.98 462.71 M656.58 463.57 C468.58 465, 278.94 465.61, -0.04 462.27 M656.98 463.03 C451.25 465.12, 245.48 464.49, -0.09 462.71 M0.12 463 C0.09 280.21, 0.3 97.2, 0.74 0.02 M0.34 463.4 C-0.45 368.64, -0.41 273.92, -0.01 -0.29" stroke="#000000" stroke-width="1" fill="none"></path></g><g stroke-linecap="round" transform="translate(338.35714285714494 1040.3999999999992) rotate(0 62.5 13)"><path d="M-0.43 -1.14 C27.73 -0.85, 55.42 1.33, 126.83 -1.04 M0.02 0.26 C46.41 -0.29, 93.04 -0.03, 125.69 -0.05 M123.46 -1.53 C124.47 6.51, 126.81 16.23, 123.38 26.27 M125.62 0.15 C125.91 7.82, 124.15 15.65, 124.24 26.73 M123.56 27.3 C76.66 25.61, 27.44 27.1, -0.63 26.91 M125.38 26.68 C86.56 25.87, 47.87 26.22, 0.37 26.12 M-0.65 25.77 C-2 19.9, -0.88 10, 1.5 1.81 M0.18 25.56 C0.65 16.99, -0.98 7.35, -0.02 -0.04" stroke="#000000" stroke-width="1" fill="none"></path></g><g stroke-linecap="round" transform="translate(491.35714285714494 1040.3999999999992) rotate(0 66 13.5)"><path d="M1.9 0.26 C27.85 1.24, 58.95 1.77, 132.4 1.24 M-0.95 0.04 C40.81 0.7, 84 -0.85, 132.71 -0.72 M131.01 0.21 C131.36 10.76, 132.21 19.81, 132.91 27.75 M132.64 -0.35 C132.49 10.04, 132.01 20.23, 132.02 26.67 M131.22 26.03 C95.42 29.74, 56.72 29.52, -1.12 27.35 M131.23 26.24 C98.13 26.88, 64.2 27.55, -0.47 27.08 M-0.48 28.88 C-1.06 19.64, -1.29 16.92, -0.95 -0.79 M-0.69 26.79 C-0.22 19.26, -0.85 10.7, -0.47 0.86" stroke="#000000" stroke-width="1" fill="none"></path></g><g stroke-linecap="round" transform="translate(650.3571428571449 1041.3999999999992) rotate(0 71 12.5)"><path d="M-0.63 0.91 C33.75 -0.04, 67.96 0.6, 143.35 0.9 M0.37 0.12 C32.56 0.87, 65.35 0.16, 141.89 -0.95 M143.5 1.81 C142.78 10.86, 140.78 18.9, 141.13 26.72 M141.98 -0.04 C141.69 7.98, 141.34 14.78, 141.09 24.73 M140.87 23.3 C97.39 27.57, 54.56 25.55, -0.06 25.91 M141.9 25.28 C89.7 24.44, 38.39 25.56, -0.37 24.64 M0.4 23.58 C1.59 19.29, -1.9 15.11, -1.55 -1.32 M-0.83 25.02 C-0.79 16.95, 0.76 7.28, -0.72 0.11" stroke="#000000" stroke-width="1" fill="none"></path></g><g stroke-linecap="round"><g transform="translate(777.3297455968714 1045.9342465753416) rotate(0 0.25001997754429794 8.654848065595132)"><path d="M-0.67 0.21 C-0.61 3.06, 0.55 15.39, 0.88 18.03 M1.17 -0.72 C0.98 1.73, -0.23 13.51, -0.34 16.45" stroke="#000000" stroke-width="1" fill="none"></path></g><g transform="translate(777.3297455968714 1045.9342465753416) rotate(0 0.25001997754429794 8.654848065595132)"><path d="M-2.5 7.87 C-1.06 11.03, -1.66 13.26, -0.36 16.42 M-2.62 7.86 C-2.05 10.64, -1.37 13.39, -0.58 16.09" stroke="#000000" stroke-width="1" fill="none"></path></g><g transform="translate(777.3297455968714 1045.9342465753416) rotate(0 0.25001997754429794 8.654848065595132)"><path d="M3.31 8.3 C2.75 11.28, 0.15 13.36, -0.36 16.42 M3.2 8.29 C2.08 10.92, 1.09 13.54, -0.58 16.09" stroke="#000000" stroke-width="1" fill="none"></path></g></g><g transform="translate(516.6071428571449 1085.399999999999) rotate(0 234 13)"><text x="0" y="18" font-family="Virgil, Segoe UI Emoji" font-size="20px" fill="#000000" text-anchor="start" style="white-space: pre;" direction="ltr">status: &lt;Ganada&gt;/&lt;perdido&gt;/&lt;equipo que roba&gt;</text></g><g stroke-linecap="round" transform="translate(322.6662337662365 1087.099999999999) rotate(0 78.5454545454545 12.5)"><path d="M-2 0.39 C34.46 -0.86, 73.01 2.12, 159 -1.65 M0.97 -0.22 C46.77 -0.99, 94.6 -0.26, 157.94 -0.31 M158.79 1.32 C156.08 6.52, 156.58 11.6, 156.75 23.56 M157.84 0.8 C156.6 7.95, 156.13 13.8, 158.06 24.49 M156.04 25.36 C116.93 25.43, 82.46 28.05, -0.63 23.8 M158.05 25.82 C99.04 26.75, 38.74 25.7, 0.85 25.85 M-1.09 24.23 C-0.05 20.94, 1.34 13.45, 1.45 -0.7 M0.16 25.41 C-0.36 20.91, 0.46 14.1, -0.95 -0.54" stroke="#000000" stroke-width="1" fill="none"></path></g><g transform="translate(333.45714285714575 507.0999999999992) rotate(0 88.5 13)"><text x="0" y="18" font-family="Virgil, Segoe UI Emoji" font-size="20px" fill="#000000" text-anchor="start" style="white-space: pre;" direction="ltr">pregunta: &lt;texto&gt;</text></g><g stroke-linecap="round" transform="translate(305.45714285714575 462.0999999999992) rotate(0 347.5 15)"><path d="M0.07 -0.18 C262.99 0.76, 524.62 0.69, 694.71 0.69 M-0.31 0.32 C160.08 0.58, 320.67 -0.05, 694.81 -0.21 M693.5 -0.12 C693.36 7.15, 693.56 15.3, 695.87 30.22 M695.83 -0.69 C695.9 9.81, 696.18 20.5, 695.15 30.31 M695.29 30.12 C463 31.97, 229.98 32.86, -0.31 29.72 M695.14 29.78 C535.86 30.91, 376.87 31.08, 0.11 29.82 M-1.03 28.62 C1.23 18.33, 0.23 7.97, -0.35 1.25 M-0.64 29.21 C1.02 21.74, 0.98 12.87, 0.51 -0.68" stroke="#000000" stroke-width="1" fill="none"></path></g><g transform="translate(318.45714285714575 470.0999999999992) rotate(0 40.5 13)"><text x="0" y="18" font-family="Virgil, Segoe UI Emoji" font-size="20px" fill="#000000" text-anchor="start" style="white-space: pre;" direction="ltr">Opciones</text></g><g stroke-linecap="round" transform="translate(1049.4571428571453 427.6999999999995) rotate(0 182.5 240.2142857142856)"><path d="M-0.89 1.13 C130.66 1.25, 259.55 0.32, 364.1 -0.51 M0.3 0.57 C98.43 0.73, 196.93 1.52, 364.62 0.16 M364.88 -0.51 C364.27 117.02, 363.96 235.88, 365.29 481.13 M364.69 -0.4 C366.18 147.57, 366.17 294.52, 364.66 480.04 M365.89 479.26 C245.98 479.2, 125.89 478.36, -0.02 480.14 M364.91 480.07 C224.24 480.59, 82.98 479.85, -0.47 480.34 M0.13 481.07 C-0.7 384.43, -0.7 287.17, -0.3 -0.77 M0.1 480.13 C-1.16 334.54, -1.15 188.21, 0.04 0.17" stroke="#000000" stroke-width="1" fill="none"></path></g><g transform="translate(1071.314285714288 758.4142857142853) rotate(0 71.5 13)"><text x="0" y="18" font-family="Virgil, Segoe UI Emoji" font-size="20px" fill="#000000" text-anchor="start" style="white-space: pre;" direction="ltr">Agregar equipo</text></g><g stroke-linecap="round" transform="translate(1068.314285714288 760.4142857142853) rotate(0 74 15)"><path d="M-1.2 1.9 C40.65 0.71, 77.69 -2.73, 148.23 -0.22 M-0.75 -0.65 C51.87 -0.53, 104 0.19, 147.4 0.48 M146.05 0.63 C149.8 7.26, 149.9 11.44, 149.87 30.23 M148.38 0.32 C147.57 9.64, 147.15 18.38, 148.35 29.28 M146.12 29.4 C110.7 30.83, 72.56 32.4, -1.24 28.89 M148.87 29.18 C97.71 29.38, 45.72 31.03, -0.65 30.05 M1.58 28.82 C1.92 23.18, 0.99 18.97, -0.79 0.35 M-0.05 29.7 C-0.23 24.18, -0.92 16.31, 0.39 0.92" stroke="#000000" stroke-width="1" fill="none"></path></g><g stroke-linecap="round" transform="translate(1060.6000000000026 640.4142857142857) rotate(0 118 21.5)"><path d="M-0.63 0.18 C49.78 -1.78, 102.83 -1.85, 235.33 0.21 M0.49 0 C84.89 1.25, 168.02 0.13, 236.36 -0.66 M237.05 -1.56 C235.08 15.1, 235.08 26.83, 234.18 43.51 M237 -0.27 C236.87 11.32, 235.94 21.31, 235.23 43.72 M235.98 44.45 C176.55 41.86, 120.12 43.97, -0.64 42.51 M235.38 42.62 C144.27 42.16, 53.12 41.5, -0.27 42.31 M-0.47 44.52 C0.57 34.77, -1.39 25.44, 1.4 -0.84 M-0.18 42.96 C0.31 33.35, -0.68 20.89, 0.82 -0.64" stroke="#000000" stroke-width="1" fill="none"></path></g><g transform="translate(1097.6000000000026 650.4142857142857) rotate(0 37 13)"><text x="0" y="18" font-family="Virgil, Segoe UI Emoji" font-size="20px" fill="#000000" text-anchor="start" style="white-space: pre;" direction="ltr">equipo 1</text></g><g stroke-linecap="round" transform="translate(1318.6000000000026 640.4142857142857) rotate(0 41.5 22)"><path d="M-1.59 -1.37 C28.23 -1.54, 54.27 0.16, 84.14 -1.88 M0.73 0.78 C21.8 -0.55, 45.27 -0.78, 83.11 0.87 M81.71 1.73 C81.94 9.68, 81.41 19.7, 81.91 45.58 M83.53 0.76 C83.04 10.78, 82.67 21.92, 82.47 43.95 M81.6 43.34 C61.34 46.56, 37.34 44.13, 1.77 43.34 M83 44.36 C63.54 43.18, 42.39 42.79, -0.85 43.27 M0.25 45.02 C-1.6 34.65, 1.5 22.59, -1.08 0.19 M0.35 44.92 C-0.56 26.81, 0.9 10.9, -0.76 0.22" stroke="#000000" stroke-width="1" fill="none"></path></g><g transform="translate(1329.6000000000026 649.4142857142857) rotate(0 34.5 13)"><text x="34.5" y="18" font-family="Virgil, Segoe UI Emoji" font-size="20px" fill="#000000" text-anchor="middle" style="white-space: pre;" direction="ltr">eliminar</text></g><g transform="translate(1260.7428571428595 863.5571428571423) rotate(0 46 13)"><text x="0" y="18" font-family="Virgil, Segoe UI Emoji" font-size="20px" fill="#000000" text-anchor="start" style="white-space: pre;" direction="ltr">Registrar</text></g><g stroke-linecap="round" transform="translate(1249.7428571428595 860.5571428571423) rotate(0 74 15)"><path d="M-0.93 -1.58 C51.5 0.4, 104.88 0.54, 149.92 1.62 M0.29 0.54 C57.82 -0.24, 116.8 0.57, 148.64 0.91 M148.63 -1.86 C148.81 11.57, 149.72 21, 150 31.3 M147.81 -0.27 C148.2 10.49, 148.76 21.29, 147.74 29.04 M147.53 29.96 C94.94 31.16, 40.75 29.66, 0.85 30.16 M147.95 29.61 C110.57 28.87, 73.61 29.07, -0.98 30.97 M-0.25 28.85 C0.73 18.13, -1.6 7.76, -2 -0.08 M0.89 30.94 C0.3 22.82, 0.69 18.02, -0.73 -0.27" stroke="#000000" stroke-width="1" fill="none"></path></g><g stroke-linecap="round"><g transform="translate(1045.5569502512935 436.008571671245) rotate(0 -324.88543602551863 15.322630461659628)"><path d="M-0.06 -0.47 C-108.24 4.81, -540.75 25.87, -648.78 31.19 M-1.56 -1.77 C-109.91 3.71, -541.86 26.69, -649.71 32.41" stroke="#000000" stroke-width="1" fill="none"></path></g><g transform="translate(1045.5569502512935 436.008571671245) rotate(0 -324.88543602551863 15.322630461659628)"><path d="M-622.89 20.72 C-632.03 25.46, -640.52 26.26, -647.76 34.37 M-622.67 21.06 C-630.77 23.55, -638.67 27.02, -649.75 31.57" stroke="#000000" stroke-width="1" fill="none"></path></g><g transform="translate(1045.5569502512935 436.008571671245) rotate(0 -324.88543602551863 15.322630461659628)"><path d="M-621.8 41.21 C-631.21 39.35, -640.04 33.56, -647.76 34.37 M-621.59 41.55 C-629.99 37.6, -638.24 34.62, -649.75 31.57" stroke="#000000" stroke-width="1" fill="none"></path></g></g><g transform="translate(463.4571428571453 466.6999999999995) rotate(0 36.5 13)"><text x="0" y="18" font-family="Virgil, Segoe UI Emoji" font-size="20px" fill="#000000" text-anchor="start" style="white-space: pre;" direction="ltr">puntaje</text></g><g stroke-linecap="round" transform="translate(487.95714285714575 78.19999999999959) rotate(0 167.875 156.5)"><path d="M-0.85 0.55 C81.73 1.05, 165.23 1.69, 334.67 0.54 M-0.63 0.14 C93.16 2.31, 187.46 2.24, 335.14 -0.5 M335.89 0.78 C335.72 92.82, 336.16 182.93, 334.96 313.58 M335.65 0.08 C336.37 80.2, 336.79 161.58, 335.29 313.69 M335.67 311.74 C242.88 313.82, 147.72 313.9, -0.81 312.48 M335.54 313.43 C268.62 312.87, 200.81 313.04, 0.22 312.49 M0.33 313.44 C-1.81 205.43, 0.06 97.16, 0.75 -1.24 M-0.65 313.07 C1.85 247.67, 1.25 182.29, 0.04 0.03" stroke="#000000" stroke-width="1" fill="none"></path></g><g stroke-linecap="round" transform="translate(507.95714285714575 103.19999999999959) rotate(0 148.5 14.5)"><path d="M-1.42 0.15 C67.74 1.15, 134.84 1.61, 296.14 -0.82 M0.63 -0.1 C101.34 -1.88, 202.12 -1.44, 297.43 -0.48 M298.29 -0.13 C295.06 13.04, 295.99 22.67, 296.17 27.8 M296.78 -0.31 C297.35 7.91, 297.26 14.8, 297.81 29.33 M295.73 29.35 C230.91 29.31, 164.59 31.25, 0.65 29.78 M296.4 28.32 C233.88 27.53, 170.55 26.91, -0.19 29.05 M0.95 28.54 C-1.94 21.9, 0.65 11.75, 0.4 0.97 M-0.94 28.76 C0 21.95, 1.06 13.73, -0.51 -0.96" stroke="#000000" stroke-width="1" fill="none"></path></g><g stroke-linecap="round" transform="translate(506.95714285714575 148.1999999999996) rotate(0 148.5 13)"><path d="M-0.42 0.86 C91.51 2.6, 184.65 1.37, 297.96 -0.09 M-0.12 -0.31 C60.78 0.76, 121.72 1.46, 296.84 -0.23 M296.26 1.62 C297.74 7.93, 298 19.87, 295.28 26.47 M297.8 0.44 C297.4 7.72, 295.95 16.44, 296.19 25.08 M296.12 25.62 C204.96 25.86, 113.16 26.96, 0.7 25.66 M297.14 26.15 C235.79 26.61, 173.31 26.25, -0.7 25.82 M1.34 24.97 C-2.16 20.75, -0.51 13.44, 1.11 -0.99 M-0.71 26.28 C-0.07 17.81, 0.21 11.07, 0.8 -0.1" stroke="#000000" stroke-width="1" fill="none"></path></g><g stroke-linecap="round" transform="translate(508.95714285714575 189.1999999999996) rotate(0 150 13)"><path d="M0.83 -0.33 C71.51 3.12, 144.41 3, 299.46 1.19 M0.36 -0.63 C99.99 -0.78, 199.26 -0.67, 300.59 0.32 M298.49 -1.63 C297.94 9.38, 300.26 18.18, 298.81 25.49 M300.78 0.47 C299.78 7.04, 300.87 16.29, 300.19 26.2 M298.9 24.62 C195.17 24.02, 92.38 25.59, 0.98 25.24 M300.69 26.41 C238.49 25.59, 177.41 25.37, -0.52 26.2 M-0.19 27.59 C0 19.85, 1.43 12.42, -1.94 0.6 M-0.42 26.49 C-0.71 19.76, -0.33 12.41, 0.83 0.53" stroke="#000000" stroke-width="1" fill="none"></path></g><g stroke-linecap="round" transform="translate(506.95714285714575 232.1999999999996) rotate(0 150 12)"><path d="M0.64 0.78 C73.4 -3.11, 148.25 -2.96, 298.65 0.15 M-0.19 0.05 C97.27 1.53, 195.06 1.66, 299.83 -0.68 M300.4 0.97 C299.58 7.75, 298.58 16.62, 299.52 23.56 M299.49 -0.96 C301.19 9.27, 301.15 19.37, 299.51 23.85 M300.41 23.76 C220.24 22.61, 142.62 23.61, -0.15 24.89 M300.22 23.58 C191.64 21.27, 82.74 22.22, -0.49 24.06 M1.06 25.69 C-0.78 17.93, 1.2 10.96, -1.29 -0.06 M-0.6 24.36 C1 20.1, 0.94 14.05, 0.82 -0.62" stroke="#000000" stroke-width="1" fill="none"></path></g><g transform="translate(543.9571428571458 109.19999999999959) rotate(0 35.5 13)"><text x="0" y="18" font-family="Virgil, Segoe UI Emoji" font-size="20px" fill="#000000" text-anchor="start" style="white-space: pre;" direction="ltr">usuario</text></g><g transform="translate(541.9571428571458 154.1999999999996) rotate(0 40.5 13)"><text x="0" y="18" font-family="Virgil, Segoe UI Emoji" font-size="20px" fill="#000000" text-anchor="start" style="white-space: pre;" direction="ltr">db_host</text></g><g transform="translate(540.9571428571458 192.1999999999996) rotate(0 20.5 13)"><text x="0" y="18" font-family="Virgil, Segoe UI Emoji" font-size="20px" fill="#000000" text-anchor="start" style="white-space: pre;" direction="ltr">port</text></g><g transform="translate(539.9571428571458 233.1999999999996) rotate(0 78.5 13)"><text x="0" y="18" font-family="Virgil, Segoe UI Emoji" font-size="20px" fill="#000000" text-anchor="start" style="white-space: pre;" direction="ltr">database_name</text></g><g transform="translate(713.4571428571444 348.69999999999993) rotate(0 41 13)"><text x="0" y="18" font-family="Virgil, Segoe UI Emoji" font-size="20px" fill="#000000" text-anchor="start" style="white-space: pre;" direction="ltr">Guardar</text></g><g stroke-linecap="round" transform="translate(686.9571428571444 349.69999999999993) rotate(0 62.75 14.375)"><path d="M1.02 -0.42 C47.44 -1.52, 93.82 -1.76, 124.83 -0.05 M-0.26 0.23 C42.87 0.27, 84.92 1.02, 125.75 0.41 M125.86 0.08 C126.46 8.07, 123.59 15.27, 125.11 27.26 M126.36 0.58 C125.99 8.65, 124.76 16.82, 126.33 28.44 M124.65 28.33 C86.56 27.13, 48.9 30.05, 0.23 29.76 M124.72 29.59 C98.2 28.11, 72.81 29.27, -0.99 29.45 M0.28 30.34 C0.65 19.79, -1.26 11.43, -1.7 -1.51 M-0.23 28.2 C-0.05 18.25, 0.28 7.34, 0.21 0.46" stroke="#000000" stroke-width="1" fill="none"></path></g><g stroke-linecap="round"><g transform="translate(486.95714285714575 84.21649784470753) rotate(0 -53.499624864015686 188.29625588657282)"><path d="M0.32 -0.51 C-17.39 62.51, -88.32 314.38, -106.24 377.34 M-0.98 -1.82 C-18.86 61.39, -90 315.1, -107.32 378.42" stroke="#000000" stroke-width="1" fill="none"></path></g><g transform="translate(486.95714285714575 84.21649784470753) rotate(0 -53.499624864015686 188.29625588657282)"><path d="M-110.51 348.09 C-110.6 355.49, -110.07 367.34, -107.09 379.43 M-110.44 349.35 C-110.01 354.38, -108.14 361.92, -108.31 379.11" stroke="#000000" stroke-width="1" fill="none"></path></g><g transform="translate(486.95714285714575 84.21649784470753) rotate(0 -53.499624864015686 188.29625588657282)"><path d="M-90.74 353.58 C-96.7 359.39, -102.07 369.6, -107.09 379.43 M-90.67 354.84 C-94.39 358.68, -96.75 365.05, -108.31 379.11" stroke="#000000" stroke-width="1" fill="none"></path></g></g><g stroke-linecap="round" transform="translate(507.95714285714485 273.5) rotate(0 150 12)"><path d="M0.7 -0.98 C83.37 -1.74, 166.09 -1.86, 300.98 -0.57 M0.19 0.08 C117.02 0.27, 232.9 -0.36, 299.71 0.54 M300.08 1.17 C300.77 6.71, 299.2 13.88, 299 25.72 M299.84 -0.16 C299.47 7.86, 299.62 15.11, 299.7 23.12 M300.3 24.83 C216.92 22.19, 131.83 21.11, 0.48 24.51 M300.06 23.83 C206.95 26.57, 114.83 25.28, -0.58 24 M-1.82 22.59 C1.96 15.66, 0.34 12.05, -1.47 -1.6 M-0.07 23.28 C0.64 16.68, -0.46 10.15, -0.52 -0.77" stroke="#000000" stroke-width="1" fill="none"></path></g><g transform="translate(540.9571428571448 274.5) rotate(0 16.5 13)"><text x="0" y="18" font-family="Virgil, Segoe UI Emoji" font-size="20px" fill="#000000" text-anchor="start" style="white-space: pre;" direction="ltr">use</text></g><g stroke-linecap="round" transform="translate(509.95714285714485 312.5) rotate(0 150 12)"><path d="M-0.75 -1.31 C81.98 -1.92, 166.04 -2.85, 301.08 -1.34 M0.07 0.63 C68.31 1.08, 137.77 1.97, 299.32 -0.05 M299.28 1.99 C299.14 3.95, 299 10.32, 298.3 24.97 M300.99 -0.17 C299.59 5, 299.23 9.58, 300.92 24.03 M300.13 24.44 C212.03 25.33, 124.51 24.66, 0.08 22.74 M299.81 24.05 C212.97 24.08, 125.64 24.57, -0.3 23.58 M-0.57 22.91 C0.71 16.59, -0.74 6.61, 1.42 0 M-0.78 23.91 C-0.28 13.91, -0.72 5.04, -0.8 0.38" stroke="#000000" stroke-width="1" fill="none"></path></g><g transform="translate(542.9571428571448 313.5) rotate(0 44 13)"><text x="0" y="18" font-family="Virgil, Segoe UI Emoji" font-size="20px" fill="#000000" text-anchor="start" style="white-space: pre;" direction="ltr">password</text></g><g stroke-linecap="round" transform="translate(1033.9571428571448 10) rotate(0 126.85714285714312 179)"><path d="M0.64 -1.26 C75.98 0.64, 151.22 -0.08, 253.62 -1.3 M-0.35 -0.73 C85.12 2.28, 171 1.59, 253.78 0.65 M253.54 -0.96 C256.14 87.52, 254.63 176.09, 254.15 358.09 M253.1 -0.49 C252.48 73.02, 253.11 147.51, 254.01 357.49 M253.03 357.68 C163.83 356.59, 71.64 358.51, 0.5 357.96 M253.5 358.23 C170.79 356.66, 86.43 356.44, -0.68 358.56 M-1.05 358.46 C-1.67 236.03, -1.82 113.39, -0.85 -0.81 M-0.62 358.24 C-0.8 236.33, -1.54 116.31, -0.43 0.48" stroke="#000000" stroke-width="1" fill="none"></path></g><g transform="translate(1053.9571428571448 27) rotate(0 55 13)"><text x="0" y="18" font-family="Virgil, Segoe UI Emoji" font-size="20px" fill="#000000" text-anchor="start" style="white-space: pre;" direction="ltr">1 - Equipo 1</text></g><g transform="translate(1054.9571428571448 63) rotate(0 68 52)"><text x="0" y="18" font-family="Virgil, Segoe UI Emoji" font-size="20px" fill="#000000" text-anchor="start" style="white-space: pre;" direction="ltr">Ganadas: xxx</text><text x="0" y="44" font-family="Virgil, Segoe UI Emoji" font-size="20px" fill="#000000" text-anchor="start" style="white-space: pre;" direction="ltr">Perdidos: xxx</text><text x="0" y="70" font-family="Virgil, Segoe UI Emoji" font-size="20px" fill="#000000" text-anchor="start" style="white-space: pre;" direction="ltr">Robadas: xxx</text><text x="0" y="96" font-family="Virgil, Segoe UI Emoji" font-size="20px" fill="#000000" text-anchor="start" style="white-space: pre;" direction="ltr">Total: xxx</text></g><g transform="translate(1053.9571428571448 181) rotate(0 83 13)"><text x="0" y="18" font-family="Virgil, Segoe UI Emoji" font-size="20px" fill="#000000" text-anchor="start" style="white-space: pre;" direction="ltr">pos_n - Equipo n</text></g><g transform="translate(1053.9571428571448 217) rotate(0 68 52)"><text x="0" y="18" font-family="Virgil, Segoe UI Emoji" font-size="20px" fill="#000000" text-anchor="start" style="white-space: pre;" direction="ltr">Ganadas: xxx</text><text x="0" y="44" font-family="Virgil, Segoe UI Emoji" font-size="20px" fill="#000000" text-anchor="start" style="white-space: pre;" direction="ltr">Perdidos: xxx</text><text x="0" y="70" font-family="Virgil, Segoe UI Emoji" font-size="20px" fill="#000000" text-anchor="start" style="white-space: pre;" direction="ltr">Robadas: xxx</text><text x="0" y="96" font-family="Virgil, Segoe UI Emoji" font-size="20px" fill="#000000" text-anchor="start" style="white-space: pre;" direction="ltr">Total: xxx</text></g><g stroke-linecap="round"><g transform="translate(1032.8625357693172 349.9486070173529) rotate(0 -243.44799691833578 63.7194700751854)"><path d="M0 0 C-81.15 21.24, -405.75 106.2, -486.9 127.44 M0 0 C-81.15 21.24, -405.75 106.2, -486.9 127.44" stroke="#000000" stroke-width="1" fill="none"></path></g><g transform="translate(1032.8625357693172 349.9486070173529) rotate(0 -243.44799691833578 63.7194700751854)"><path d="M-462.22 110.37 C-468.9 114.99, -475.57 119.61, -486.9 127.44 M-462.22 110.37 C-469.73 115.57, -477.24 120.76, -486.9 127.44" stroke="#000000" stroke-width="1" fill="none"></path></g><g transform="translate(1032.8625357693172 349.9486070173529) rotate(0 -243.44799691833578 63.7194700751854)"><path d="M-457.03 130.23 C-465.11 129.47, -473.19 128.72, -486.9 127.44 M-457.03 130.23 C-466.11 129.38, -475.2 128.53, -486.9 127.44" stroke="#000000" stroke-width="1" fill="none"></path></g></g><g stroke-linecap="round" transform="translate(1034.9571428571426 327.70000000000005) rotate(0 124.21428571428578 17.357142857143117)"><path d="M0 0 C90.06 0, 180.12 0, 248.43 0 M0 0 C97.14 0, 194.28 0, 248.43 0 M248.43 0 C248.43 8.48, 248.43 16.95, 248.43 34.71 M248.43 0 C248.43 12.77, 248.43 25.53, 248.43 34.71 M248.43 34.71 C195.02 34.71, 141.62 34.71, 0 34.71 M248.43 34.71 C178.98 34.71, 109.54 34.71, 0 34.71 M0 34.71 C0 22.25, 0 9.78, 0 0 M0 34.71 C0 21.09, 0 7.46, 0 0" stroke="#000000" stroke-width="1" fill="none"></path></g><g stroke-linecap="round" transform="translate(1044.9571428571426 336.70000000000005) rotate(0 56 9.5)"><path d="M0 0 C42.79 0, 85.57 0, 112 0 M0 0 C40.07 0, 80.14 0, 112 0 M112 0 C112 4.94, 112 9.88, 112 19 M112 0 C112 4.32, 112 8.64, 112 19 M112 19 C75.83 19, 39.66 19, 0 19 M112 19 C71.51 19, 31.02 19, 0 19 M0 19 C0 14.76, 0 10.51, 0 0 M0 19 C0 14.47, 0 9.94, 0 0" stroke="#000000" stroke-width="1" fill="none"></path></g><g transform="translate(1057.9571428571426 335.70000000000005) rotate(0 10.5 13)"><text x="0" y="18" font-family="Virgil, Segoe UI Emoji" font-size="20px" fill="#000000" text-anchor="start" style="white-space: pre;" direction="ltr">ok</text></g><g transform="translate(364.2857142857142 1041.4428571428573) rotate(0 35.5 13)"><text x="0" y="18" font-family="Virgil, Segoe UI Emoji" font-size="20px" fill="#000000" text-anchor="start" style="white-space: pre;" direction="ltr">ganada</text></g><g transform="translate(522.8571428571422 1041.4428571428573) rotate(0 35 13)"><text x="0" y="18" font-family="Virgil, Segoe UI Emoji" font-size="20px" fill="#000000" text-anchor="start" style="white-space: pre;" direction="ltr">perdida</text></g><g transform="translate(668.571428571428 1040.014285714286) rotate(0 33 13)"><text x="0" y="18" font-family="Virgil, Segoe UI Emoji" font-size="20px" fill="#000000" text-anchor="start" style="white-space: pre;" direction="ltr">robado</text></g><g stroke-linecap="round" transform="translate(11.428571428571104 73.30000000000007) rotate(0 172.8571428571429 162.1428571428571)"><path d="M0 0 C127.79 0, 255.57 0, 345.71 0 M0 0 C90.73 0, 181.47 0, 345.71 0 M345.71 0 C345.71 67.32, 345.71 134.63, 345.71 324.29 M345.71 0 C345.71 105.76, 345.71 211.52, 345.71 324.29 M345.71 324.29 C269.91 324.29, 194.11 324.29, 0 324.29 M345.71 324.29 C248.65 324.29, 151.59 324.29, 0 324.29 M0 324.29 C0 240.52, 0 156.75, 0 0 M0 324.29 C0 246.11, 0 167.94, 0 0" stroke="#000000" stroke-width="1" fill="none"></path></g><g stroke-linecap="round" transform="translate(30 103.30000000000007) rotate(0 156.42857142857133 124.28571428571428)"><path d="M0 0 C89.62 0, 179.24 0, 312.86 0 M0 0 C94.75 0, 189.51 0, 312.86 0 M312.86 0 C312.86 79.36, 312.86 158.71, 312.86 248.57 M312.86 0 C312.86 90.28, 312.86 180.56, 312.86 248.57 M312.86 248.57 C247.17 248.57, 181.48 248.57, 0 248.57 M312.86 248.57 C212.45 248.57, 112.04 248.57, 0 248.57 M0 248.57 C0 153.88, 0 59.18, 0 0 M0 248.57 C0 193.38, 0 138.18, 0 0" stroke="#000000" stroke-width="1" fill="none"></path></g><g transform="translate(50 128.5857142857143) rotate(0 143.5 26)"><text x="0" y="18" font-family="Virgil, Segoe UI Emoji" font-size="20px" fill="#000000" text-anchor="start" style="white-space: pre;" direction="ltr">Grupo - 202160_bda_1224a</text><text x="0" y="44" font-family="Virgil, Segoe UI Emoji" font-size="20px" fill="#000000" text-anchor="start" style="white-space: pre;" direction="ltr">Grupo - 202160_opp_12556</text></g><g transform="translate(237.14285714285688 360.01428571428573) rotate(0 32 13)"><text x="0" y="18" font-family="Virgil, Segoe UI Emoji" font-size="20px" fill="#000000" text-anchor="start" style="white-space: pre;" direction="ltr">cargar</text></g><g stroke-linecap="round" transform="translate(231.4285714285711 363.30000000000007) rotate(0 45.71428571428578 12.857142857142833)"><path d="M0 0 C32.63 0, 65.26 0, 91.43 0 M0 0 C20.35 0, 40.7 0, 91.43 0 M91.43 0 C91.43 8.83, 91.43 17.67, 91.43 25.71 M91.43 0 C91.43 8.01, 91.43 16.02, 91.43 25.71 M91.43 25.71 C58.6 25.71, 25.77 25.71, 0 25.71 M91.43 25.71 C56.68 25.71, 21.92 25.71, 0 25.71 M0 25.71 C0 18.78, 0 11.85, 0 0 M0 25.71 C0 17.21, 0 8.72, 0 0" stroke="#000000" stroke-width="1" fill="none"></path></g><g stroke-linecap="round"><g transform="translate(10 401.8714285714286) rotate(0 155.71428571428555 38.571428571428555)"><path d="M0 0 C51.9 12.86, 259.52 64.29, 311.43 77.14 M0 0 C51.9 12.86, 259.52 64.29, 311.43 77.14" stroke="#000000" stroke-width="1" fill="none"></path></g><g transform="translate(10 401.8714285714286) rotate(0 155.71428571428555 38.571428571428555)"><path d="M281.6 80.32 C289.95 79.43, 298.3 78.54, 311.43 77.14 M281.6 80.32 C289.13 79.52, 296.66 78.72, 311.43 77.14" stroke="#000000" stroke-width="1" fill="none"></path></g><g transform="translate(10 401.8714285714286) rotate(0 155.71428571428555 38.571428571428555)"><path d="M286.53 60.41 C293.5 65.09, 300.47 69.78, 311.43 77.14 M286.53 60.41 C292.82 64.63, 299.1 68.86, 311.43 77.14" stroke="#000000" stroke-width="1" fill="none"></path></g></g><g stroke-linecap="round" transform="translate(350.2142857142853 1184.8714285714286) rotate(0 172.85714285714334 117.14285714285711)"><path d="M0 0 C89.61 0, 179.21 0, 345.71 0 M0 0 C126.27 0, 252.54 0, 345.71 0 M345.71 0 C345.71 70.14, 345.71 140.29, 345.71 234.29 M345.71 0 C345.71 57.81, 345.71 115.62, 345.71 234.29 M345.71 234.29 C217.98 234.29, 90.26 234.29, 0 234.29 M345.71 234.29 C217.04 234.29, 88.37 234.29, 0 234.29 M0 234.29 C0 155.64, 0 76.99, 0 0 M0 234.29 C0 149.2, 0 64.12, 0 0" stroke="#000000" stroke-width="1" fill="none"></path></g><g stroke-linecap="round" transform="translate(365.92857142857065 1214.8714285714282) rotate(0 154.28571428571468 18.571428571428555)"><path d="M0 0 C110.8 0, 221.6 0, 308.57 0 M0 0 C117.29 0, 234.58 0, 308.57 0 M308.57 0 C308.57 10.01, 308.57 20.02, 308.57 37.14 M308.57 0 C308.57 12.28, 308.57 24.55, 308.57 37.14 M308.57 37.14 C189.59 37.14, 70.61 37.14, 0 37.14 M308.57 37.14 C198.1 37.14, 87.64 37.14, 0 37.14 M0 37.14 C0 22.75, 0 8.36, 0 0 M0 37.14 C0 28.76, 0 20.38, 0 0" stroke="#000000" stroke-width="1" fill="none"></path></g><g transform="translate(497.78571428571377 1219.0142857142864) rotate(0 21 13)"><text x="21" y="18" font-family="Virgil, Segoe UI Emoji" font-size="20px" fill="#000000" text-anchor="middle" style="white-space: pre;" direction="ltr">user</text></g><g stroke-linecap="round" transform="translate(364.49999999999955 1290.5857142857142) rotate(0 155.71428571428578 18.571428571428953)"><path d="M0 0 C82.02 0, 164.04 0, 311.43 0 M0 0 C69.85 0, 139.69 0, 311.43 0 M311.43 0 C311.43 8.42, 311.43 16.85, 311.43 37.14 M311.43 0 C311.43 12.71, 311.43 25.42, 311.43 37.14 M311.43 37.14 C221.37 37.14, 131.32 37.14, 0 37.14 M311.43 37.14 C241.31 37.14, 171.19 37.14, 0 37.14 M0 37.14 C0 27.18, 0 17.22, 0 0 M0 37.14 C0 26.05, 0 14.96, 0 0" stroke="#000000" stroke-width="1" fill="none"></path></g><g transform="translate(468.7857142857142 1293.014285714286) rotate(0 44 13)"><text x="0" y="18" font-family="Virgil, Segoe UI Emoji" font-size="20px" fill="#000000" text-anchor="start" style="white-space: pre;" direction="ltr">password</text></g><g transform="translate(391.6428571428564 1363.0142857142855) rotate(0 20 13)"><text x="0" y="18" font-family="Virgil, Segoe UI Emoji" font-size="20px" fill="#000000" text-anchor="start" style="white-space: pre;" direction="ltr">login</text></g><g stroke-linecap="round" transform="translate(371.6428571428569 1350.5857142857144) rotate(0 39.28571428571422 22.857142857142776)"><path d="M0 0 C25.29 0, 50.57 0, 78.57 0 M0 0 C20.26 0, 40.52 0, 78.57 0 M78.57 0 C78.57 10.99, 78.57 21.97, 78.57 45.71 M78.57 0 C78.57 15.97, 78.57 31.93, 78.57 45.71 M78.57 45.71 C47.93 45.71, 17.28 45.71, 0 45.71 M78.57 45.71 C50.36 45.71, 22.14 45.71, 0 45.71 M0 45.71 C0 30.94, 0 16.17, 0 0 M0 45.71 C0 29.81, 0 13.9, 0 0" stroke="#000000" stroke-width="1" fill="none"></path></g><g transform="translate(478.78571428571377 1362.7285714285713) rotate(0 33 13)"><text x="0" y="18" font-family="Virgil, Segoe UI Emoji" font-size="20px" fill="#000000" text-anchor="start" style="white-space: pre;" direction="ltr">sign up</text></g><g stroke-linecap="round" transform="translate(465.9285714285711 1353.442857142857) rotate(0 50 21.42857142857133)"><path d="M0 0 C24.37 0, 48.75 0, 100 0 M0 0 C23.98 0, 47.95 0, 100 0 M100 0 C100 10.07, 100 20.14, 100 42.86 M100 0 C100 8.94, 100 17.87, 100 42.86 M100 42.86 C72.34 42.86, 44.68 42.86, 0 42.86 M100 42.86 C61.4 42.86, 22.79 42.86, 0 42.86 M0 42.86 C0 26.97, 0 11.08, 0 0 M0 42.86 C0 31.56, 0 20.26, 0 0" stroke="#000000" stroke-width="1" fill="none"></path></g><g transform="translate(587.4999999999995 1364.5857142857144) rotate(0 29.5 13)"><text x="0" y="18" font-family="Virgil, Segoe UI Emoji" font-size="20px" fill="#000000" text-anchor="start" style="white-space: pre;" direction="ltr">cancel</text></g><g stroke-linecap="round" transform="translate(580.2142857142853 1352.014285714286) rotate(0 39.28571428571422 21.42857142857133)"><path d="M0 0 C29.28 0, 58.57 0, 78.57 0 M0 0 C27.35 0, 54.69 0, 78.57 0 M78.57 0 C78.57 8.98, 78.57 17.96, 78.57 42.86 M78.57 0 C78.57 14.08, 78.57 28.16, 78.57 42.86 M78.57 42.86 C55.06 42.86, 31.56 42.86, 0 42.86 M78.57 42.86 C48.96 42.86, 19.35 42.86, 0 42.86 M0 42.86 C0 31.54, 0 20.22, 0 0 M0 42.86 C0 31.78, 0 20.7, 0 0" stroke="#000000" stroke-width="1" fill="none"></path></g><g stroke-linecap="round"><g transform="translate(703.0624398073833 1293.5104322395994) rotate(0 100.16163723916543 -2.6766446912284323)"><path d="M0 0 C33.39 -0.89, 166.94 -4.46, 200.32 -5.35 M0 0 C33.39 -0.89, 166.94 -4.46, 200.32 -5.35" stroke="#000000" stroke-width="4" fill="none"></path></g><g transform="translate(703.0624398073833 1293.5104322395994) rotate(0 100.16163723916543 -2.6766446912284323)"><path d="M172.42 5.66 C181.58 2.04, 190.74 -1.57, 200.32 -5.35 M172.42 5.66 C182.31 1.75, 192.2 -2.15, 200.32 -5.35" stroke="#000000" stroke-width="4" fill="none"></path></g><g transform="translate(703.0624398073833 1293.5104322395994) rotate(0 100.16163723916543 -2.6766446912284323)"><path d="M171.87 -14.86 C181.21 -11.74, 190.56 -8.62, 200.32 -5.35 M171.87 -14.86 C181.95 -11.49, 192.04 -8.12, 200.32 -5.35" stroke="#000000" stroke-width="4" fill="none"></path></g></g><g transform="translate(933.3857142857141 1277.1571428571424) rotate(0 36 13)"><text x="0" y="18" font-family="Virgil, Segoe UI Emoji" font-size="20px" fill="#000000" text-anchor="start" style="white-space: pre;" direction="ltr">al inicio</text></g><g stroke-linecap="round" transform="translate(1165.6857142857143 440.0571428571425) rotate(0 114.5 21.5)"><path d="M0.73 1.03 C79.47 -0.9, 162.58 0.92, 227.5 0.5 M-0.85 -0.28 C62.36 -1.55, 123.21 -1.45, 228.67 0.83 M228.71 -1.58 C229.35 7, 230.73 18.68, 230.84 43.48 M229.9 0.77 C228.91 8.31, 228.4 18.59, 229.98 42.29 M229.4 42.24 C160.95 43.07, 96.21 40.73, -0.33 42.52 M229.4 43.34 C177.24 42.39, 125.14 42.9, -0.28 42.68 M-1.59 43.4 C1.58 25.39, 1.83 10.71, 1.07 -1.92 M-0.54 42.16 C0.27 30.72, -0.7 20.35, -0.06 -0.81" stroke="#000000" stroke-width="1" fill="none"></path></g><g transform="translate(1078.6857142857143 450.0571428571425) rotate(0 31.5 13)"><text x="0" y="18" font-family="Virgil, Segoe UI Emoji" font-size="20px" fill="#000000" text-anchor="start" style="white-space: pre;" direction="ltr">nombre</text></g><g stroke-linecap="round"><g transform="translate(1228.8670726659939 793.0880186407701) rotate(0 124.86380669472351 0.4586346447922054)"><path d="M0 0 C41.62 0.15, 208.11 0.76, 249.73 0.92 M0 0 C41.62 0.15, 208.11 0.76, 249.73 0.92" stroke="#000000" stroke-width="1" fill="none"></path></g><g transform="translate(1228.8670726659939 793.0880186407701) rotate(0 124.86380669472351 0.4586346447922054)"><path d="M221.5 11.07 C227.31 8.98, 233.12 6.89, 249.73 0.92 M221.5 11.07 C232.14 7.24, 242.79 3.41, 249.73 0.92" stroke="#000000" stroke-width="1" fill="none"></path></g><g transform="translate(1228.8670726659939 793.0880186407701) rotate(0 124.86380669472351 0.4586346447922054)"><path d="M221.57 -9.45 C227.37 -7.31, 233.17 -5.18, 249.73 0.92 M221.57 -9.45 C232.19 -5.54, 242.81 -1.63, 249.73 0.92" stroke="#000000" stroke-width="1" fill="none"></path></g></g><g stroke-linecap="round" transform="translate(1489.422588522587 719.3376068376084) rotate(0 184.89010989010876 63.241758241758134)"><path d="M0 0 C83.29 0, 166.57 0, 369.78 0 M0 0 C110.31 0, 220.62 0, 369.78 0 M369.78 0 C369.78 35.68, 369.78 71.35, 369.78 126.48 M369.78 0 C369.78 49.5, 369.78 99, 369.78 126.48 M369.78 126.48 C283.27 126.48, 196.76 126.48, 0 126.48 M369.78 126.48 C241.68 126.48, 113.57 126.48, 0 126.48 M0 126.48 C0 80.45, 0 34.42, 0 0 M0 126.48 C0 94.26, 0 62.04, 0 0" stroke="#000000" stroke-width="1" fill="none"></path></g><g stroke-linecap="round" transform="translate(1506.5654456654438 739.3376068376084) rotate(0 169.89010989010967 15.054945054945165)"><path d="M0 0 C121.88 0, 243.75 0, 339.78 0 M0 0 C100.59 0, 201.18 0, 339.78 0 M339.78 0 C339.78 9, 339.78 18.01, 339.78 30.11 M339.78 0 C339.78 6.54, 339.78 13.08, 339.78 30.11 M339.78 30.11 C267.14 30.11, 194.49 30.11, 0 30.11 M339.78 30.11 C221.93 30.11, 104.07 30.11, 0 30.11 M0 30.11 C0 18.91, 0 7.7, 0 0 M0 30.11 C0 20.62, 0 11.14, 0 0" stroke="#000000" stroke-width="1" fill="none"></path></g><g stroke-linecap="round" transform="translate(1510.8511599511594 795.931013431015) rotate(0 84.72527472527463 13.846153846153811)"><path d="M0 0 C41.68 0, 83.35 0, 169.45 0 M0 0 C51.62 0, 103.23 0, 169.45 0 M169.45 0 C169.45 10.85, 169.45 21.69, 169.45 27.69 M169.45 0 C169.45 7.07, 169.45 14.15, 169.45 27.69 M169.45 27.69 C120.42 27.69, 71.38 27.69, 0 27.69 M169.45 27.69 C130.56 27.69, 91.67 27.69, 0 27.69 M0 27.69 C0 20.81, 0 13.92, 0 0 M0 27.69 C0 17.55, 0 7.41, 0 0" stroke="#000000" stroke-width="1" fill="none"></path></g><g stroke-linecap="round" transform="translate(1706.1258852258843 794.062881562883) rotate(0 71.4285714285711 15)"><path d="M0 0 C38.88 0, 77.76 0, 142.86 0 M0 0 C40.23 0, 80.46 0, 142.86 0 M142.86 0 C142.86 9.21, 142.86 18.42, 142.86 30 M142.86 0 C142.86 7.11, 142.86 14.22, 142.86 30 M142.86 30 C93.34 30, 43.82 30, 0 30 M142.86 30 C98.06 30, 53.26 30, 0 30 M0 30 C0 22.9, 0 15.8, 0 0 M0 30 C0 22.81, 0 15.61, 0 0" stroke="#000000" stroke-width="1" fill="none"></path></g><g transform="translate(1526.5654456654438 740.337606837608) rotate(0 84.5 13)"><text x="0" y="18" font-family="Virgil, Segoe UI Emoji" font-size="20px" fill="#000000" text-anchor="start" style="white-space: pre;" direction="ltr">nombre del equipo</text></g><g transform="translate(1512.9390720390693 797.4804639804653) rotate(0 82 13)"><text x="0" y="18" font-family="Virgil, Segoe UI Emoji" font-size="20px" fill="#000000" text-anchor="start" style="white-space: pre;" direction="ltr">cant integrantes</text></g><g transform="translate(1723.2687423687412 792.2057387057399) rotate(0 43.5 13)"><text x="0" y="18" font-family="Virgil, Segoe UI Emoji" font-size="20px" fill="#000000" text-anchor="start" style="white-space: pre;" direction="ltr">registrar</text></g><g transform="translate(1080.0808302808273 498.9200244200266) rotate(0 39.5 13)"><text x="0" y="18" font-family="Virgil, Segoe UI Emoji" font-size="20px" fill="#000000" text-anchor="start" style="white-space: pre;" direction="ltr">período </text></g><g stroke-linecap="round" transform="translate(1166.0808302808273 492.4200244200266) rotate(0 114.5 21.5)"><path d="M0.45 0.44 C69.61 0.63, 136.16 1.46, 229.76 -0.83 M0.78 -0.83 C59.26 -1.06, 117.32 -1.92, 229.08 0.43 M227.15 -1.96 C229.35 12.65, 230.34 26.86, 229.73 44.48 M228.34 -0.44 C230.04 15.73, 229.78 32.68, 229.58 42.4 M229.38 44.37 C149.41 42.62, 67.13 42.29, -0.04 43.15 M228.95 43 C158.78 44.97, 88.58 44.94, 0.28 43.67 M0.02 41.67 C1.06 26.96, 0.3 15.9, 0.13 1.1 M-0.93 42.14 C-0.7 29.34, 1.05 16.38, 0.44 0.93" stroke="#000000" stroke-width="1" fill="none"></path></g><g transform="translate(1078.0808302808273 553.1628815628843) rotate(0 14 13)"><text x="0" y="18" font-family="Virgil, Segoe UI Emoji" font-size="20px" fill="#000000" text-anchor="start" style="white-space: pre;" direction="ltr">nrc</text></g><g stroke-linecap="round" transform="translate(1164.0808302808273 546.6628815628843) rotate(0 114.5 21.5)"><path d="M-0.75 -0.94 C82.1 1.79, 166.06 -0.61, 228.81 1.57 M-0.05 0.65 C55.96 0.76, 113 1.47, 229.3 0.15 M229.74 1.79 C230.41 13.04, 229.56 23.37, 230.91 43.75 M228.4 0.76 C228.44 14.54, 228.11 28.95, 228.86 43.81 M227.85 43.66 C171.98 41.13, 117.79 43.99, -1.39 42.19 M229.06 42.44 C162.64 42.87, 97.07 42.01, -0.44 43.27 M-1.61 41.53 C0.57 31.23, -0.12 22.42, 0.23 -1.63 M-0.09 42.29 C-0.22 31, -0.42 21.27, -0.82 -0.72" stroke="#000000" stroke-width="1" fill="none"></path></g><g stroke-linecap="round"><g transform="translate(1050.5808302808273 619.5914529914559) rotate(0 182.5 1.0714285714284415)"><path d="M0 0 C60.83 0.36, 304.17 1.79, 365 2.14 M0 0 C60.83 0.36, 304.17 1.79, 365 2.14" stroke="#000000" stroke-width="1" fill="none"></path></g></g><g stroke-linecap="round" transform="translate(1062.2236874236842 694.7343101343132) rotate(0 118 21.5)"><path d="M-0.44 0.34 C78.49 -0.69, 157.43 -0.91, 234.96 1.21 M0.54 0.82 C65.05 0.07, 128.44 0.15, 236.52 0.56 M234.53 1.9 C234.5 13.94, 235.82 29.37, 235.83 41.17 M236.18 0.67 C235.15 10.17, 235.7 20.85, 236.99 42.88 M235.37 44.31 C160.88 41.06, 85.42 43.42, 0.46 43.01 M236.49 43.02 C183.7 43.68, 130.8 43.44, -0.26 43.81 M-0.49 44.58 C1.59 28.63, -1.06 9.63, -0.26 -0.31 M-0.44 43.44 C0.18 27.54, -1.03 13.14, -0.81 0.8" stroke="#000000" stroke-width="1" fill="none"></path></g><g transform="translate(1099.2236874236842 704.7343101343132) rotate(0 41.5 13)"><text x="0" y="18" font-family="Virgil, Segoe UI Emoji" font-size="20px" fill="#000000" text-anchor="start" style="white-space: pre;" direction="ltr">equipo 2</text></g><g stroke-linecap="round" transform="translate(1320.2236874236842 694.7343101343132) rotate(0 41.5 22)"><path d="M0.08 -0.28 C27.52 -0.71, 52.41 1.27, 82.45 -0.75 M0.85 0.85 C27.32 0.14, 55.81 -0.14, 83.29 0.24 M81.4 -0.21 C82.39 15.99, 82.51 28.01, 81.83 44.27 M82.09 -0.22 C82.72 14.36, 84.07 28.45, 83.19 43.88 M83.07 42.46 C60.57 45.92, 39.19 44.66, -1.55 42.45 M83.25 44.64 C57.32 44.38, 31.72 44.98, 0.76 44.09 M1.63 45.79 C-0.91 30.87, -0.15 19.5, 0.79 1.36 M0.47 43.14 C-0.55 28.54, -0.62 15.18, 0.41 0.59" stroke="#000000" stroke-width="1" fill="none"></path></g><g transform="translate(1331.2236874236842 703.7343101343132) rotate(0 34.5 13)"><text x="34.5" y="18" font-family="Virgil, Segoe UI Emoji" font-size="20px" fill="#000000" text-anchor="middle" style="white-space: pre;" direction="ltr">eliminar</text></g><g transform="translate(345.0522588522567 565.8914529914551) rotate(0 242.5 220.5)"><text x="0" y="17.941176470588236" font-family="Virgil, Segoe UI Emoji" font-size="20px" fill="#000000" text-anchor="start" style="white-space: pre;" direction="ltr">------------------------------------------------</text><text x="0" y="43.88235294117647" font-family="Virgil, Segoe UI Emoji" font-size="20px" fill="#000000" text-anchor="start" style="white-space: pre;" direction="ltr">ronda 1 equipo: &lt;equipo&gt;</text><text x="0" y="69.82352941176471" font-family="Virgil, Segoe UI Emoji" font-size="20px" fill="#000000" text-anchor="start" style="white-space: pre;" direction="ltr">pregunta: &lt;texto&gt;</text><text x="0" y="95.76470588235294" font-family="Virgil, Segoe UI Emoji" font-size="20px" fill="#000000" text-anchor="start" style="white-space: pre;" direction="ltr">resultado: &lt;ganado&gt;/&lt;perdido&gt;/&lt;equipo que roba&gt;</text><text x="0" y="121.70588235294119" font-family="Virgil, Segoe UI Emoji" font-size="20px" fill="#000000" text-anchor="start" style="white-space: pre;" direction="ltr">------------------------------------------------</text><text x="0" y="147.64705882352942" font-family="Virgil, Segoe UI Emoji" font-size="20px" fill="#000000" text-anchor="start" style="white-space: pre;" direction="ltr">ronda 2 equipo: &lt;equipo&gt;</text><text x="0" y="173.58823529411765" font-family="Virgil, Segoe UI Emoji" font-size="20px" fill="#000000" text-anchor="start" style="white-space: pre;" direction="ltr">pregunta: &lt;texto&gt;</text><text x="0" y="199.52941176470588" font-family="Virgil, Segoe UI Emoji" font-size="20px" fill="#000000" text-anchor="start" style="white-space: pre;" direction="ltr">resultado: &lt;ganado&gt;/&lt;perdido&gt;/&lt;equipo que roba&gt;</text><text x="0" y="225.47058823529412" font-family="Virgil, Segoe UI Emoji" font-size="20px" fill="#000000" text-anchor="start" style="white-space: pre;" direction="ltr">------------------------------------------------</text><text x="0" y="251.41176470588238" font-family="Virgil, Segoe UI Emoji" font-size="20px" fill="#000000" text-anchor="start" style="white-space: pre;" direction="ltr">ronda n equipo: &lt;equipo&gt;</text><text x="0" y="277.3529411764706" font-family="Virgil, Segoe UI Emoji" font-size="20px" fill="#000000" text-anchor="start" style="white-space: pre;" direction="ltr">pregunta: &lt;texto&gt;</text><text x="0" y="303.29411764705884" font-family="Virgil, Segoe UI Emoji" font-size="20px" fill="#000000" text-anchor="start" style="white-space: pre;" direction="ltr">resultado: &lt;ganado&gt;/&lt;perdido&gt;/&lt;equipo que roba&gt;</text><text x="0" y="329.2352941176471" font-family="Virgil, Segoe UI Emoji" font-size="20px" fill="#000000" text-anchor="start" style="white-space: pre;" direction="ltr">------------------------------------------------</text><text x="0" y="355.1764705882353" font-family="Virgil, Segoe UI Emoji" font-size="20px" fill="#000000" text-anchor="start" style="white-space: pre;" direction="ltr">ronda n+1 equipo: &lt;equipo&gt;</text><text x="0" y="381.11764705882354" font-family="Virgil, Segoe UI Emoji" font-size="20px" fill="#000000" text-anchor="start" style="white-space: pre;" direction="ltr">pregunta: &lt;texto&gt;</text><text x="0" y="407.05882352941177" font-family="Virgil, Segoe UI Emoji" font-size="20px" fill="#000000" text-anchor="start" style="white-space: pre;" direction="ltr">resultado: &lt;ganado&gt;/&lt;perdido&gt;/&lt;equipo que roba&gt;</text><text x="0" y="433" font-family="Virgil, Segoe UI Emoji" font-size="20px" fill="#000000" text-anchor="start" style="white-space: pre;" direction="ltr">------------------------------------------------</text></g><g transform="translate(327.02906902838185 1086.2408006757378) rotate(0 73.5 13)"><text x="0" y="18" font-family="Virgil, Segoe UI Emoji" font-size="20px" fill="#000000" text-anchor="start" style="white-space: pre;" direction="ltr">siguiente ronda</text></g><g stroke-linecap="round" transform="translate(321.84075734007 1022.9615798965161) rotate(0 260 29.28571428571422)"><path d="M334.24 1.22 C357.96 2.02, 381.59 3.25, 402.3 4.78 C423.01 6.3, 442.53 8.24, 458.51 10.37 C474.49 12.5, 488.27 14.99, 498.19 17.55 C508.11 20.1, 515 22.93, 518.04 25.7 C521.07 28.46, 520.5 31.4, 516.4 34.14 C512.29 36.89, 504.31 39.69, 493.41 42.19 C482.5 44.69, 467.77 47.11, 450.98 49.16 C434.18 51.21, 413.93 53.05, 392.65 54.47 C371.36 55.9, 347.27 57.01, 323.27 57.69 C299.27 58.37, 273.35 58.67, 248.63 58.54 C223.9 58.42, 198.31 57.87, 174.93 56.96 C151.54 56.05, 128.41 54.7, 108.32 53.07 C88.22 51.44, 69.47 49.41, 54.33 47.2 C39.19 45, 26.4 42.44, 17.48 39.84 C8.56 37.24, 2.77 34.38, 0.81 31.6 C-1.14 28.82, 0.57 25.89, 5.73 23.17 C10.9 20.44, 19.96 17.69, 31.83 15.25 C43.69 12.8, 59.35 10.45, 76.92 8.49 C94.49 6.53, 115.44 4.78, 137.26 3.47 C159.08 2.15, 183.58 1.16, 207.82 0.6 C232.06 0.04, 258.07 -0.13, 282.72 0.11 C307.38 0.36, 332.73 1.03, 355.74 2.06 C378.75 3.08, 401.33 4.55, 420.78 6.27 C440.23 7.99, 458.16 10.12, 472.43 12.4 C486.7 14.68, 498.49 17.29, 506.39 19.94" stroke="#000000" stroke-width="1" fill="none"></path></g><g stroke-linecap="round"><g transform="translate(840.4121859114985 1052.961579896516) rotate(0 209.28571428571422 12.142857142857338)"><path d="M0 0 C69.76 4.05, 348.81 20.24, 418.57 24.29 M0 0 C69.76 4.05, 348.81 20.24, 418.57 24.29" stroke="#000000" stroke-width="1" fill="none"></path></g><g transform="translate(840.4121859114985 1052.961579896516) rotate(0 209.28571428571422 12.142857142857338)"><path d="M389.83 32.9 C400.34 29.75, 410.84 26.6, 418.57 24.29 M389.83 32.9 C396.73 30.83, 403.63 28.76, 418.57 24.29" stroke="#000000" stroke-width="1" fill="none"></path></g><g transform="translate(840.4121859114985 1052.961579896516) rotate(0 209.28571428571422 12.142857142857338)"><path d="M391.02 12.41 C401.09 16.75, 411.16 21.09, 418.57 24.29 M391.02 12.41 C397.64 15.26, 404.25 18.11, 418.57 24.29" stroke="#000000" stroke-width="1" fill="none"></path></g></g><g transform="translate(1286.1264716257838 1066.8187227536591) rotate(0 308 13)"><text x="0" y="18" font-family="Virgil, Segoe UI Emoji" font-size="20px" fill="#000000" text-anchor="start" style="white-space: pre;" direction="ltr">Se tienen que bloquear durante 1 min y luego deben habilitarse</text></g></svg>